{
  "accessors": [
    {
      "bufferView": 2,
      "componentType": 5126,
      "count": 65532,
      "max": [
        3.974869728088379,
        3.947840690612793,
        4.131242752075195
      ],
      "min": [
        -3.953021287918091,
        -3.9675285816192627,
        1.7331852912902832
      ],
      "type": "VEC3"
    },
    {
      "bufferView": 2,
      "byteOffset": 786384,
      "componentType": 5126,
      "count": 65532,
      "max": [
        1.0,
        1.0,
        1.0
      ],
      "min": [
        -1.0,
        -1.0,
        -1.0
      ],
      "type": "VEC3"
    },
    {
      "bufferView": 3,
      "componentType": 5126,
      "count": 65532,
      "max": [
        1.0,
        1.0,
        1.0,
        1.0
      ],
      "min": [
        -1.0,
        -1.0,
        -1.0,
        1.0
      ],
      "type": "VEC4"
    },
    {
      "bufferView": 1,
      "componentType": 5126,
      "count": 65532,
      "max": [
        0.9912936091423035,
        0.9960725903511047
      ],
      "min": [
        0.003842294216156006,
        0.0038423165678977966
      ],
      "type": "VEC2"
    },
    {
      "bufferView": 1,
      "byteOffset": 524256,
      "componentType": 5126,
      "count": 65532,
      "max": [
        0.9912936091423035,
        0.9960725903511047
      ],
      "min": [
        0.003842294216156006,
        0.0038423165678977966
      ],
      "type": "VEC2"
    },
    {
      "bufferView": 1,
      "byteOffset": 1048512,
      "componentType": 5126,
      "count": 65532,
      "max": [
        0.9912936091423035,
        0.9960725903511047
      ],
      "min": [
        0.003842294216156006,
        0.0038423165678977966
      ],
      "type": "VEC2"
    },
    {
      "bufferView": 0,
      "componentType": 5125,
      "count": 297906,
      "type": "SCALAR"
    },
    {
      "bufferView": 2,
      "byteOffset": 1572768,
      "componentType": 5126,
      "count": 40979,
      "max": [
        3.805783748626709,
        3.8051793575286865,
        4.027876377105713
      ],
      "min": [
        -3.804126501083374,
        -3.8051793575286865,
        3.024963855743408
      ],
      "type": "VEC3"
    },
    {
      "bufferView": 2,
      "byteOffset": 2064516,
      "componentType": 5126,
      "count": 40979,
      "max": [
        1.0,
        1.0,
        0.9999979734420776
      ],
      "min": [
        -1.0,
        -1.0,
        -0.9999978542327881
      ],
      "type": "VEC3"
    },
    {
      "bufferView": 3,
      "byteOffset": 1048512,
      "componentType": 5126,
      "count": 40979,
      "max": [
        0.9990729689598083,
        0.997383177280426,
        1.0,
        1.0
      ],
      "min": [
        -0.9990740418434143,
        -0.9973812103271484,
        -1.0,
        1.0
      ],
      "type": "VEC4"
    },
    {
      "bufferView": 1,
      "byteOffset": 1572768,
      "componentType": 5126,
      "count": 40979,
      "max": [
        0.9913647174835205,
        0.9961576461791992
      ],
      "min": [
        0.003842318430542946,
        0.005381584167480469
      ],
      "type": "VEC2"
    },
    {
      "bufferView": 1,
      "byteOffset": 1900600,
      "componentType": 5126,
      "count": 40979,
      "max": [
        0.9913647174835205,
        0.9961576461791992
      ],
      "min": [
        0.003842318430542946,
        0.005381584167480469
      ],
      "type": "VEC2"
    },
    {
      "bufferView": 1,
      "byteOffset": 2228432,
      "componentType": 5126,
      "count": 40979,
      "max": [
        0.9913647174835205,
        0.9961576461791992
      ],
      "min": [
        0.003842318430542946,
        0.005381584167480469
      ],
      "type": "VEC2"
    },
    {
      "bufferView": 0,
      "byteOffset": 1191624,
      "componentType": 5125,
      "count": 185694,
      "type": "SCALAR"
    }
  ],
  "asset": {
    "extras": {
      "author": "Bornx (https://sketchfab.com/bornx)",
      "license": "SKETCHFAB Standard (https://sketchfab.com/licenses)",
      "source": "https://sketchfab.com/3d-models/boxing-ring-861f09ce71014e4baebeb79b2f99b1d2",
      "title": "Boxing Ring"
    },
    "generator": "Sketchfab-16.16.0",
    "version": "2.0"
  },
  "bufferViews": [
    {
      "buffer": 0,
      "byteLength": 1934400,
      "name": "floatBufferViews",
      "target": 34963
    },
    {
      "buffer": 0,
      "byteLength": 2556264,
      "byteOffset": 1934400,
      "byteStride": 8,
      "name": "floatBufferViews",
      "target": 34962
    },
    {
      "buffer": 0,
      "byteLength": 2556264,
      "byteOffset": 4490664,
      "byteStride": 12,
      "name": "floatBufferViews",
      "target": 34962
    },
    {
      "buffer": 0,
      "byteLength": 1704176,
      "byteOffset": 7046928,
      "byteStride": 16,
      "name": "floatBufferViews",
      "target": 34962
    }
  ],
  "buffers": [
    {
      "byteLength": 8751104,
      "uri": "scene.bin"
    }
  ],
  "images": [
    {
      "uri": "textures/Boxing_Ring_baseColor.png"
    },
    {
      "uri": "textures/Boxing_Ring_metallicRoughness.png"
    },
    {
      "uri": "textures/Boxing_Ring_normal.png"
    }
  ],
  "materials": [
    {
      "doubleSided": true,
      "name": "Boxing_Ring",
      "normalTexture": {
        "index": 2
      },
      "pbrMetallicRoughness": {
        "baseColorTexture": {
          "index": 0
        },
        "metallicRoughnessTexture": {
          "index": 1
        }
      }
    }
  ],
  "meshes": [
    {
      "name": "Boxing Ring_Boxing Ring_0",
      "primitives": [
        {
          "attributes": {
            "NORMAL": 1,
            "POSITION": 0,
            "TANGENT": 2,
            "TEXCOORD_0": 3,
            "TEXCOORD_1": 4,
            "TEXCOORD_2": 5
          },
          "indices": 6,
          "material": 0,
          "mode": 4
        }
      ]
    },
    {
      "name": "Boxing Ring_Boxing Ring_0",
      "primitives": [
        {
          "attributes": {
            "NORMAL": 8,
            "POSITION": 7,
            "TANGENT": 9,
            "TEXCOORD_0": 10,
            "TEXCOORD_1": 11,
            "TEXCOORD_2": 12
          },
          "indices": 13,
          "material": 0,
          "mode": 4
        }
      ]
    }
  ],
  "nodes": [
    {
      "children": [
        1
      ],
      "matrix": [
        1.0,
        0.0,
        0.0,
        0.0,
        0.0,
        2.220446049250313e-16,
        -1.0,
        0.0,
        0.0,
        1.0,
        2.220446049250313e-16,
        0.0,
        0.0,
        0.0,
        0.0,
        1.0
      ],
      "name": "Sketchfab_model"
    },
    {
      "children": [
        2
      ],
      "matrix": [
        0.009999999776482582,
        0.0,
        0.0,
        0.0,
        0.0,
        0.0,
        0.009999999776482582,
        0.0,
        0.0,
        -0.009999999776482582,
        0.0,
        0.0,
        0.0,
        0.0,
        0.0,
        1.0
      ],
      "name": "Boxing Ring.fbx"
    },
    {
      "children": [
        3
      ],
      "name": "RootNode"
    },
    {
      "children": [
        4,
        5
      ],
      "matrix": [
        100.0,
        0.0,
        0.0,
        0.0,
        -0.0,
        -1.629206793918314e-05,
        -99.99999999999868,
        0.0,
        0.0,
        99.99999999999868,
        -1.629206793918314e-05,
        0.0,
        -0.08285351097583771,
        -173.45523071289063,
        0.0,
        1.0
      ],
      "name": "Boxing Ring"
    },
    {
      "mesh": 0,
      "name": "Boxing Ring_Boxing Ring_0"
    },
    {
      "mesh": 1,
      "name": "Boxing Ring_Boxing Ring_0"
    }
  ],
  "samplers": [
    {
      "magFilter": 9729,
      "minFilter": 9987,
      "wrapS": 10497,
      "wrapT": 10497
    }
  ],
  "scene": 0,
  "scenes": [
    {
      "name": "Sketchfab_Scene",
      "nodes": [
        0
      ]
    }
  ],
  "textures": [
    {
      "sampler": 0,
      "source": 0
    },
    {
      "sampler": 0,
      "source": 1
    },
    {
      "sampler": 0,
      "source": 2
    }
  ]
}
